<svg xmlns="http://www.w3.org/2000/svg" width="129" height="24" fill="none" viewBox="0 0 129 24"><path fill="#fff" d="M22.783 1.523H3.071v19.712h19.712z"></path><path fill="var(--color-primary)" d="M19.45 0H4.55A4.55 4.55 0 0 0 0 4.55v14.9A4.55 4.55 0 0 0 4.55 24h14.9A4.55 4.55 0 0 0 24 19.45V4.55A4.55 4.55 0 0 0 19.45 0m-4.67 6.904c0 .292-.083.579-.239.826h-2.632a1.554 1.554 0 0 1 2.252-2.07 1.55 1.55 0 0 1 .62 1.244m-3.658-3.267a1.8 1.8 0 0 1 1.75 1.392 1.77 1.77 0 0 0-1.557 2.195 1.799 1.799 0 1 1-.194-3.586zM9.035 8.123h6.032a.659.659 0 0 1 0 1.317H9.035a.659.659 0 1 1 0-1.317m7.616 9.839a1.675 1.675 0 0 1-1.675 1.675h-5.8a1.676 1.676 0 0 1-1.675-1.675V12.42a1.68 1.68 0 0 1 1.21-1.606v-.584h6.586v.55a1.675 1.675 0 0 1 1.354 1.64z"></path><path fill="var(--color-primary)" d="M12.06 13.57c-1.588-1.588-3.647.472-2.06 2.059l2.06 2.055 2.052-2.052c1.572-1.572-.487-3.631-2.052-2.063M37.993 6.818V18.72c.02.576-.17 1.14-.533 1.586q-.532.635-1.479.635a1.84 1.84 0 0 1-1.472-.641c-.367-.441-.56-1.001-.545-1.575V6.818h-2.375a2.15 2.15 0 0 1-1.418-.476 1.6 1.6 0 0 1-.575-1.3 1.64 1.64 0 0 1 .572-1.322c.399-.33.904-.502 1.421-.485h8.71a2.12 2.12 0 0 1 1.42.479q.567.479.566 1.327a1.6 1.6 0 0 1-.574 1.294 2.12 2.12 0 0 1-1.412.481zM46.466 8.626q1.38-1.443 2.586-1.443a2.07 2.07 0 0 1 1.424.524 1.7 1.7 0 0 1 .594 1.328q0 .837-.482 1.2-.48.364-1.485.685-1.405.473-2.037.971-.6.473-.601 1.574v5.256c.02.556-.163 1.1-.514 1.532q-.515.613-1.421.613a1.72 1.72 0 0 1-1.392-.623c-.35-.43-.533-.97-.517-1.523V9.463q0-1.041.466-1.546a1.78 1.78 0 0 1 1.385-.656q1.35.005 1.994 1.365M60.668 19.347a4.7 4.7 0 0 1-1.427 1.22 3.9 3.9 0 0 1-1.791.376q-2.09 0-3.768-1.462-2.274-2.025-2.274-5.441 0-3.15 2.012-5.127 1.755-1.755 3.952-1.755c.617-.02 1.23.1 1.795.351A5.6 5.6 0 0 1 60.7 8.674q.589-1.41 1.858-1.409a1.94 1.94 0 0 1 1.96 1.96v9.36a2.48 2.48 0 0 1-.539 1.613 1.76 1.76 0 0 1-1.443.668q-1.331 0-1.867-1.52m-5.414-5.367c-.02.833.2 1.655.635 2.368q.634 1.012 1.9 1.012c.53.011 1.05-.148 1.484-.453.423-.302.757-.713.965-1.189.219-.489.331-1.018.329-1.553q0-1.49-.684-2.458-.683-.968-2.099-.968a2.13 2.13 0 0 0-1.861 1.001 3.9 3.9 0 0 0-.67 2.24M71.396 14.379v4.342a2.3 2.3 0 0 1-.514 1.526q-.515.62-1.421.619a1.72 1.72 0 0 1-1.392-.623c-.35-.43-.533-.97-.517-1.523V3.626a2.5 2.5 0 0 1 .223-1.06c.138-.316.366-.585.656-.773.307-.191.663-.29 1.024-.28a1.77 1.77 0 0 1 1.415.605c.355.421.541.958.524 1.508v8.16l3.82-3.921q.595-.626 1.75-.626c.352.012.686.16.932.412.28.244.483.563.588.918q.042.219.051.441a1.93 1.93 0 0 1-.708 1.494l-2.72 2.586 3.379 4.19q.787 1.04.787 1.563a2.24 2.24 0 0 1-.466 1.417 1.47 1.47 0 0 1-1.214.6q-1.2 0-1.852-.893zM86.72 10.92v7.797a2.3 2.3 0 0 1-.51 1.536 1.73 1.73 0 0 1-1.398.61 1.75 1.75 0 0 1-1.412-.623 2.3 2.3 0 0 1-.525-1.523V10.92q-1.443 0-1.935-.574a1.67 1.67 0 0 1-.447-1.181 1.8 1.8 0 0 1 .242-.869c.138-.27.357-.488.626-.625q.465-.237 1.514-.237V5.043c-.018-.556.165-1.1.517-1.53q.517-.617 1.418-.617a1.73 1.73 0 0 1 1.395.613c.35.432.533.976.514 1.532v2.401h1.098c.5-.016.99.146 1.379.46a1.56 1.56 0 0 1 .555 1.27 1.59 1.59 0 0 1-.559 1.277c-.386.32-.875.488-1.376.473zM94.595 15.324q.402 1.154 1.149 1.67c.518.396 1.154.609 1.806.604a4.8 4.8 0 0 0 2.172-.525l1.098-.547c.231-.106.48-.169.734-.185.281.002.555.077.798.217.254.138.467.34.619.586.148.228.228.494.23.766q0 1.08-1.546 1.959-1.883 1.072-4.316 1.072a7.4 7.4 0 0 1-3.017-.626 6.54 6.54 0 0 1-2.423-1.837q-1.444-1.744-1.444-4.501a6.9 6.9 0 0 1 .872-3.411 6.6 6.6 0 0 1 2.394-2.493 6.34 6.34 0 0 1 3.35-.918c1.13-.01 2.24.29 3.211.868a6.24 6.24 0 0 1 2.292 2.353 6.43 6.43 0 0 1 .83 3.194q0 .919-.38 1.333-.38.415-1.268.419zm5.05-2.623q-.612-2.408-2.623-2.408-1.77 0-2.561 2.408zM109.217 15.324q.403 1.154 1.15 1.67a2.93 2.93 0 0 0 1.806.604 4.8 4.8 0 0 0 2.171-.525l1.099-.547c.231-.106.48-.169.734-.185.283.002.56.078.804.22.254.14.467.341.62.587.147.228.227.494.229.766q0 1.08-1.545 1.959-1.884 1.071-4.316 1.072a7.4 7.4 0 0 1-3.018-.626 6.5 6.5 0 0 1-2.423-1.837q-1.443-1.743-1.443-4.501a6.9 6.9 0 0 1 .871-3.411 6.6 6.6 0 0 1 2.394-2.493 6.34 6.34 0 0 1 3.35-.918c1.129-.01 2.24.29 3.211.868a6.23 6.23 0 0 1 2.292 2.353 6.44 6.44 0 0 1 .831 3.194q0 .92-.381 1.333-.38.415-1.267.419zm5.051-2.623q-.612-2.408-2.624-2.408-1.768 0-2.56 2.408zM124.235 8.626q1.38-1.443 2.586-1.443a2.07 2.07 0 0 1 1.424.524 1.7 1.7 0 0 1 .594 1.328q0 .837-.482 1.2-.481.364-1.483.685-1.405.473-2.038.971-.6.473-.601 1.574v5.256a2.3 2.3 0 0 1-.514 1.532q-.514.613-1.421.613a1.72 1.72 0 0 1-1.392-.623 2.3 2.3 0 0 1-.517-1.523V9.463q0-1.041.466-1.546a1.79 1.79 0 0 1 1.385-.656q1.35.005 1.993 1.365"></path></svg>